<svg xmlns="http://www.w3.org/2000/svg" width="18.333" height="22" viewBox="0 0 18.333 22">
    <path fill="white" d="M14.333 4a1.865 1.865 0 0 0-1.318.516 1.865 1.865 0 0 0-.515 1.317v.917H7v1.833h.917V23.25a2.765 2.765 0 0 0 2.75 2.75h11a2.765 2.765 0 0 0 2.75-2.75V8.583h.917V6.75h-5.5v-.917a1.865 1.865 0 0 0-.516-1.318A1.865 1.865 0 0 0 18 4zm0 1.833H18v.917h-3.667zM9.75 8.583h12.833V23.25a.914.914 0 0 1-.917.917h-11a.914.914 0 0 1-.917-.917zm1.833 2.75v10.084h1.833V11.333zm3.667 0v10.084h1.833V11.333zm3.667 0v10.084h1.833V11.333z" transform="translate(-7 -4)"/>
</svg>
